<svg width="27" height="24" viewBox="0 0 27 24" fill="none" xmlns="http://www.w3.org/2000/svg">
<path opacity="0.4" d="M14.3534 2.26972L13.3333 3.36563L12.3133 2.26972C9.49644 -0.756571 4.92945 -0.756573 2.11262 2.26972C-0.704207 5.296 -0.704208 10.2026 2.11262 13.2289L11.2932 23.0921C12.4199 24.3026 14.2467 24.3026 15.3735 23.0921L24.554 13.2289C27.3709 10.2026 27.3709 5.296 24.554 2.26972C21.7372 -0.756571 17.1702 -0.756572 14.3534 2.26972Z" fill="white"/>
<path fill-rule="evenodd" clip-rule="evenodd" d="M10.6663 7C11.0007 7 11.3129 7.1671 11.4984 7.4453L15.9997 14.1972L17.8343 11.4453C18.0198 11.1671 18.332 11 18.6663 11H25.333C25.8853 11 26.333 11.4477 26.333 12C26.333 12.5523 25.8853 13 25.333 13H19.2015L16.8317 16.5547C16.6463 16.8329 16.334 17 15.9997 17C15.6653 17 15.3531 16.8329 15.1676 16.5547L10.6663 9.80278L8.83173 12.5547C8.64626 12.8329 8.33403 13 7.99967 13H1.33301C0.780723 13 0.333008 12.5523 0.333008 12C0.333008 11.4477 0.780723 11 1.33301 11H7.46449L9.83429 7.4453C10.0198 7.1671 10.332 7 10.6663 7Z" fill="white"/>
</svg>